{"title":"Holidaze (2006) DvdRip [Xvid] {1337x}-X.avi","uid":6060754,"size":735985664,"categoryP":"video","categoryS":"movies","magnet":"?xt=urn:btih:77fd4537497e5be98b2b7864e78400d8206d2b8d&amp;dn=Holidaze+%282006%29+DvdRip+%5BXvid%5D+%7B1337x%7D-X.avi&amp;tr=udp%3A%2F%2Ftracker.openbittorrent.com%3A80&amp;tr=udp%3A%2F%2Fopen.demonii.com%3A1337&amp;tr=udp%3A%2F%2Ftracker.coppersurfer.tk%3A6969&amp;tr=udp%3A%2F%2Fexodus.desync.com%3A6969","seeders":0,"leechers":3,"uploader":"hiest","files":-1,"time":1293110359,"description":"Rusty Reindeer (Savage) stumbles into a support group where the Easter Bunny, Cupid, and other down-and-out holiday icons congregate.\n\n\n\n\n\nVideo\n\nCodec ID/Hint : XviD\nDuration : 1h 0mn\nBit rate : 1 506 Kbps\nWidth : 720 pixels\nHeight : 400 pixels\nDisplay aspect ratio : 16:9\nFrame rate : 25.000 fps\nColor space : YUV\nChroma subsampling : 4:2:0\nBit depth : 8 bits\nScan type : Progressive\nBits/(Pixel*Frame) : 0.209\nStream size : 652 MiB (93%)\nWriting library : XviD 57\n\n\nAudio\nID : 1\nFormat : MPEG Audio\nFormat version : Version 1\nFormat profile : Layer 3\nMode : Joint stereo\nMode extension : MS Stereo\nCodec ID : 55\nCodec ID/Hint : MP3\nDuration : 1h 0mn\nBit rate mode : Variable\nBit rate : 103 Kbps\nNominal bit rate : 112 Kbps\nChannel(s) : 2 channels\nSampling rate : 48.0 KHz\nStream size : 44.5 MiB (6%)\nAlignment : Aligned on interleaves\nInterleave, duration : 24 ms (0.60 video frame)\nInterleave, preload duration : 537 ms\nWriting library : LAME3.97 \n\n\nIMDB &lt;a href=&quot;\nhttp://www.imdb.com/title/tt0849447/&quot; rel=&quot;nofollow&quot; target=&quot;_NEW&quot;&gt;\nhttp://www.imdb.com/title/tt0849447/&lt;/a&gt;\n\n\n\n\n\n================================== &lt;a href=&quot;\nhttp://thepiratebay.se/user/hiest&quot; rel=&quot;nofollow&quot; target=&quot;_NEW&quot;&gt;\nhttp://thepiratebay.se/user/hiest&lt;/a&gt;\n==================================\n\n\n\n\n\nScreenshots:\n &lt;a href=&quot;\nhttp://leetleech.org/images/03038342128993330715.png&quot; rel=&quot;nofollow&quot; target=&quot;_NEW&quot;&gt;\nhttp://leetleech.org/images/03038342128993330715.png&lt;/a&gt;\n &lt;a href=&quot;\nhttp://leetleech.org/images/99926322142362509751.png&quot; rel=&quot;nofollow&quot; target=&quot;_NEW&quot;&gt;\nhttp://leetleech.org/images/99926322142362509751.png&lt;/a&gt;\n &lt;a href=&quot;\nhttp://leetleech.org/images/77465064821933201199.png&quot; rel=&quot;nofollow&quot; target=&quot;_NEW&quot;&gt;\nhttp://leetleech.org/images/77465064821933201199.png&lt;/a&gt;","torrent":{"xt":"urn:btih:77fd4537497e5be98b2b7864e78400d8206d2b8d","amp;dn":"Holidaze+%282006%29+DvdRip+%5BXvid%5D+%7B1337x%7D-X.avi","amp;tr":["udp%3A%2F%2Ftracker.openbittorrent.com%3A80","udp%3A%2F%2Fopen.demonii.com%3A1337","udp%3A%2F%2Ftracker.coppersurfer.tk%3A6969","udp%3A%2F%2Fexodus.desync.com%3A6969"],"infoHash":"77fd4537497e5be98b2b7864e78400d8206d2b8d","infoHashBuffer":{"type":"Buffer","data":[119,253,69,55,73,126,91,233,139,43,120,100,231,132,0,216,32,109,43,141]},"announce":[],"urlList":[]}}